<svg width="20" height="18" viewBox="0 0 20 18" fill="none" xmlns="http://www.w3.org/2000/svg">
<path d="M15.9209 0H3.25419C1.45975 0 0.0875244 1.3 0.0875244 3V15C0.0875244 16.7 1.45975 18 3.25419 18H15.9209C17.7153 18 19.0875 16.7 19.0875 15V3C19.0875 1.3 17.7153 0 15.9209 0ZM9.58752 6C11.382 6 12.7542 7.3 12.7542 9C12.7542 10.7 11.382 12 9.58752 12C7.79308 12 6.42086 10.7 6.42086 9C6.42086 7.3 7.79308 6 9.58752 6ZM13.5986 4C13.5986 3.3 14.232 2.8 14.8653 2.8C15.4986 2.8 16.132 3.4 16.132 4C16.132 4.6 15.6042 5.2 14.8653 5.2C14.1264 5.2 13.5986 4.7 13.5986 4ZM15.9209 16H3.25419C2.62086 16 2.19864 15.6 2.19864 15V9H4.30975C4.30975 11.8 6.63197 14 9.58752 14C12.5431 14 14.8653 11.8 14.8653 9H16.9764V15C16.9764 15.6 16.5542 16 15.9209 16Z" fill="#F4F4F4"/>
</svg>
