<svg width="19" height="18" viewBox="0 0 19 18" fill="none" xmlns="http://www.w3.org/2000/svg">
<path d="M15.8333 0H3.16667C1.37222 0 0 1.3 0 3V15C0 16.7 1.37222 18 3.16667 18H15.8333C17.6278 18 19 16.7 19 15V3C19 1.3 17.6278 0 15.8333 0ZM9.5 6C11.2944 6 12.6667 7.3 12.6667 9C12.6667 10.7 11.2944 12 9.5 12C7.70556 12 6.33333 10.7 6.33333 9C6.33333 7.3 7.70556 6 9.5 6ZM13.5111 4C13.5111 3.3 14.1444 2.8 14.7778 2.8C15.4111 2.8 16.0444 3.4 16.0444 4C16.0444 4.6 15.5167 5.2 14.7778 5.2C14.0389 5.2 13.5111 4.7 13.5111 4ZM15.8333 16H3.16667C2.53333 16 2.11111 15.6 2.11111 15V9H4.22222C4.22222 11.8 6.54444 14 9.5 14C12.4556 14 14.7778 11.8 14.7778 9H16.8889V15C16.8889 15.6 16.4667 16 15.8333 16Z" fill="#5E5E5E"/>
</svg>
