<svg width="22" height="17" viewBox="0 0 22 17" fill="none" xmlns="http://www.w3.org/2000/svg">
<path d="M21.0875 2C20.3146 2.35 19.4814 2.58 18.6181 2.69C19.5015 2.16 20.1841 1.32 20.5053 0.31C19.6721 0.81 18.7486 1.16 17.7749 1.36C16.9819 0.5 15.8676 0 14.6028 0C12.2438 0 10.3165 1.92 10.3165 4.29C10.3165 4.63 10.3566 4.96 10.4269 5.27C6.8533 5.09 3.67118 3.38 1.55311 0.79C1.18169 1.42 0.97089 2.16 0.97089 2.94C0.97089 4.43 1.72376 5.75 2.88819 6.5C2.17548 6.5 1.51295 6.3 0.930737 6V6.03C0.930737 8.11 2.4164 9.85 4.38389 10.24C3.75221 10.4122 3.08905 10.4362 2.44651 10.31C2.71916 11.1625 3.25312 11.9084 3.97334 12.4429C4.69357 12.9775 5.56383 13.2737 6.46181 13.29C4.93964 14.4904 3.05282 15.1393 1.11143 15.13C0.770125 15.13 0.428825 15.11 0.0875244 15.07C1.99479 16.29 4.26343 17 6.69269 17C14.6028 17 18.9494 10.46 18.9494 4.79C18.9494 4.6 18.9494 4.42 18.9393 4.23C19.7826 3.63 20.5053 2.87 21.0875 2V2Z" fill="#F4F4F4"/>
</svg>
