<svg width="24" height="17" viewBox="0 0 24 17" fill="none" xmlns="http://www.w3.org/2000/svg">
<path d="M23.4937 2.65408C23.3571 2.14065 23.0897 1.67252 22.7181 1.29654C22.3466 0.920565 21.884 0.649935 21.3766 0.511735C19.5082 1.55094e-07 12 0 12 0C12 0 4.49183 1.55094e-07 2.62336 0.511735C2.11599 0.649935 1.6534 0.920565 1.28186 1.29654C0.910331 1.67252 0.642899 2.14065 0.506332 2.65408C0.157447 4.58243 -0.0118575 6.53964 0.00064491 8.5C-0.0118575 10.4604 0.157447 12.4176 0.506332 14.3459C0.642899 14.8594 0.910331 15.3275 1.28186 15.7035C1.6534 16.0794 2.11599 16.3501 2.62336 16.4883C4.49183 17 12 17 12 17C12 17 19.5082 17 21.3766 16.4883C21.884 16.3501 22.3466 16.0794 22.7181 15.7035C23.0897 15.3275 23.3571 14.8594 23.4937 14.3459C23.8426 12.4176 24.0119 10.4604 23.9994 8.5C24.0119 6.53964 23.8426 4.58243 23.4937 2.65408ZM9.60013 12.1429V4.85714L15.8312 8.5L9.60013 12.1429Z" fill="#5E5E5E"/>
</svg>
