<svg width="25" height="17" viewBox="0 0 25 17" fill="none" xmlns="http://www.w3.org/2000/svg">
<path d="M23.5812 2.65408C23.4446 2.14065 23.1772 1.67252 22.8057 1.29654C22.4341 0.920565 21.9715 0.649935 21.4642 0.511735C19.5957 1.55094e-07 12.0875 0 12.0875 0C12.0875 0 4.57936 1.55094e-07 2.71089 0.511735C2.20352 0.649935 1.74092 0.920565 1.36939 1.29654C0.997856 1.67252 0.730423 2.14065 0.593856 2.65408C0.244971 4.58243 0.0756669 6.53964 0.0881693 8.5C0.0756669 10.4604 0.244971 12.4176 0.593856 14.3459C0.730423 14.8594 0.997856 15.3275 1.36939 15.7035C1.74092 16.0794 2.20352 16.3501 2.71089 16.4883C4.57936 17 12.0875 17 12.0875 17C12.0875 17 19.5957 17 21.4642 16.4883C21.9715 16.3501 22.4341 16.0794 22.8057 15.7035C23.1772 15.3275 23.4446 14.8594 23.5812 14.3459C23.9301 12.4176 24.0994 10.4604 24.0869 8.5C24.0994 6.53964 23.9301 4.58243 23.5812 2.65408ZM9.68765 12.1429V4.85714L15.9187 8.5L9.68765 12.1429Z" fill="#F4F4F4"/>
</svg>
